<?xml version="1.0" encoding="utf-8"?>
<!-- Generator: Adobe Illustrator 19.1.0, SVG Export Plug-In . SVG Version: 6.00 Build 0)  -->
<svg version="1.1" xmlns="http://www.w3.org/2000/svg" xmlns:xlink="http://www.w3.org/1999/xlink" x="0px" y="0px"
	 viewBox="-616 336 50 50" style="enable-background:new -616 336 50 50;" xml:space="preserve">
<style type="text/css">
	.st0{display:none;}
	.st1{display:inline;}
</style>
<g id="Layer_1" class="st0">
	<g class="st1">
		<g>
			<path d="M-500,362.7c-8.5,0-15.3,6.9-15.3,15.3s6.8,15.3,15.3,15.3s15.3-6.8,15.3-15.3S-491.5,362.7-500,362.7z M-500,389
				c-6.1,0-11-4.9-11-11s4.9-11,11-11s11,4.9,11,11S-493.9,389-500,389z M-500,358.3c1.2,0,2.2-1,2.2-2.2v-4.4c0-1.2-1-2.2-2.2-2.2
				s-2.2,1-2.2,2.2v4.4C-502.2,357.3-501.2,358.3-500,358.3z M-500,397.7c-1.2,0-2.2,1-2.2,2.2v4.4c0,1.2,1,2.2,2.2,2.2
				s2.2-1,2.2-2.2v-4.4C-497.8,398.7-498.8,397.7-500,397.7z M-482.9,364l3.1-3.1c0.9-0.9,0.9-2.2,0-3.1c-0.9-0.9-2.2-0.9-3.1,0
				l-3.1,3.1c-0.9,0.9-0.9,2.2,0,3.1S-483.8,364.9-482.9,364z M-517,392l-3.1,3.1c-0.9,0.9-0.9,2.2,0,3.1c0.9,0.9,2.2,0.9,3.1,0
				l3.1-3.1c0.9-0.9,0.9-2.2,0-3.1C-514.8,391.1-516.2,391.1-517,392z M-519.7,378c0-1.2-1-2.2-2.2-2.2h-4.4c-1.2,0-2.2,1-2.2,2.2
				s1,2.2,2.2,2.2h4.4C-520.7,380.2-519.7,379.2-519.7,378z M-473.7,375.8h-4.4c-1.2,0-2.2,1-2.2,2.2s1,2.2,2.2,2.2h4.4
				c1.2,0,2.2-1,2.2-2.2S-472.5,375.8-473.7,375.8z M-517.1,364c0.9,0.9,2.2,0.9,3.1,0s0.9-2.2,0-3.1l-3.1-3.1
				c-0.9-0.9-2.2-0.9-3.1,0c-0.9,0.9-0.9,2.2,0,3.1L-517.1,364z M-482.9,392c-0.9-0.9-2.2-0.9-3.1,0s-0.9,2.2,0,3.1l3.1,3.1
				c0.9,0.9,2.2,0.9,3.1,0c0.9-0.9,0.9-2.2,0-3.1L-482.9,392z"/>
		</g>
	</g>
</g>
<g id="Layer_2">
	<path d="M-611.9,357c0,1.2,0.5,2.3,1.3,3.1c-0.6,0.8-0.9,1.7-0.9,2.7c0,1.1,0.4,2.2,1.3,3.1c0.9,0.9,2.1,1.4,3.3,1.4h9.5l-0.6,4
		c-0.1,0.5-0.1,1-0.1,1.5c0,3.9,2.6,8.5,6.1,8.5c1,0,1.9-0.3,2.7-1l0.4-0.3l-0.5-6.5c0-0.3,0-0.6,0.1-0.8c0.1-0.3,0.2-0.5,0.3-0.8
		c0,0,3.9-10.2,4.8-9.9c0.1,0,0.6,0.1,0.6,0.1c0.1,0.9,0.9,1.6,1.8,1.6h10.1c1,0,1.8-0.8,1.8-1.8v-19.1c0-1-0.8-1.8-1.8-1.8H-582
		c-1,0-0.5,3.4-1.2,3.1l-0.6-0.3c0,0,0,0,0,0c0,0-4.3-1.6-4.4-1.6c-1.1-0.6-15.2,0-15.2,0l0,0c-2.3,0.1-4.2,2.1-4.2,4.4
		c0,0.4,0,0.7,0.1,1c-1.6,0.7-2.7,2.2-2.7,4c0,0.6,0.1,1.2,0.3,1.7C-611.1,354-611.9,355.4-611.9,357z"/>
</g>
</svg>
