<?xml version="1.0" encoding="utf-8"?>
<!-- Generator: Adobe Illustrator 19.1.0, SVG Export Plug-In . SVG Version: 6.00 Build 0)  -->
<svg version="1.1" id="Layer_1" xmlns="http://www.w3.org/2000/svg" xmlns:xlink="http://www.w3.org/1999/xlink" x="0px" y="0px"
	 viewBox="-583.9 304.9 50 50" style="enable-background:new -583.9 304.9 50 50;" xml:space="preserve">
<g>
	<g>
		<path d="M-546,317.7h-8.6c-0.4,0-0.7-0.3-0.7-0.7s0.3-0.7,0.7-0.7h8.6c0.4,0,0.7,0.3,0.7,0.7S-545.6,317.7-546,317.7z"/>
	</g>
	<g>
		<path d="M-548.8,320.6c-0.2,0-0.4-0.1-0.5-0.2c-0.3-0.3-0.3-0.7,0-1l2.4-2.4l-2.4-2.4c-0.3-0.3-0.3-0.7,0-1c0.3-0.3,0.7-0.3,1,0
			l2.9,2.9c0.3,0.3,0.3,0.7,0,1l-2.9,2.9C-548.5,320.5-548.7,320.6-548.8,320.6z"/>
	</g>
	<g>
		<path d="M-564.7,317.7h-8.6c-0.4,0-0.7-0.3-0.7-0.7s0.3-0.7,0.7-0.7h8.6c0.4,0,0.7,0.3,0.7,0.7S-564.3,317.7-564.7,317.7z"/>
	</g>
	<g>
		<path d="M-570.4,320.6c-0.2,0-0.4-0.1-0.5-0.2l-2.9-2.9c-0.3-0.3-0.3-0.7,0-1l2.9-2.9c0.3-0.3,0.7-0.3,1,0c0.3,0.3,0.3,0.7,0,1
			l-2.4,2.4l2.4,2.4c0.3,0.3,0.3,0.7,0,1C-570.1,320.5-570.2,320.6-570.4,320.6z"/>
	</g>
	<g>
		<path d="M-551.7,346.5h-3.4c-1.7,0-3.4-0.7-4.6-1.9l-10.2-10.2c-0.8-0.8-0.8-2.2,0-3.1c1.3-1.3,3.4-1.5,4.9-0.3l2.5,1.9v-12.2
			c0-1.6,1.3-2.9,2.9-2.9s2.9,1.3,2.9,2.9v4.7c0.4-0.2,0.9-0.4,1.4-0.4c1.3,0,2.3,0.8,2.7,1.9c0.5-0.3,1-0.5,1.6-0.5
			c1.3,0,2.3,0.8,2.7,1.9c0.5-0.3,1-0.5,1.6-0.5c1.6,0,2.9,1.3,2.9,2.9v7.9C-543.8,342.9-547.4,346.5-551.7,346.5z M-567.3,331.6
			c-0.6,0-1.2,0.2-1.6,0.7c-0.3,0.3-0.3,0.7,0,1l10.2,10.2c1,1,2.2,1.5,3.6,1.5h3.4c3.6,0,6.5-2.9,6.5-6.5v-7.9
			c0-0.8-0.6-1.4-1.4-1.4c-0.8,0-1.4,0.6-1.4,1.4v0.7c0,0.4-0.3,0.7-0.7,0.7s-0.7-0.3-0.7-0.7v-2.2c0-0.8-0.6-1.4-1.4-1.4
			c-0.8,0-1.4,0.6-1.4,1.4v2.2c0,0.4-0.3,0.7-0.7,0.7s-0.7-0.3-0.7-0.7v-3.6c0-0.8-0.6-1.4-1.4-1.4c-0.8,0-1.4,0.6-1.4,1.4v3.6
			c0,0.4-0.3,0.7-0.7,0.7s-0.7-0.3-0.7-0.7v-10.8c0-0.8-0.6-1.4-1.4-1.4s-1.4,0.6-1.4,1.4v13.7c0,0.3-0.2,0.5-0.4,0.6
			c-0.2,0.1-0.5,0.1-0.8-0.1l-3.7-2.7C-566.3,331.8-566.8,331.6-567.3,331.6z"/>
	</g>
</g>
</svg>
