<?xml version="1.0" encoding="utf-8"?>
<!-- Generator: Adobe Illustrator 19.1.0, SVG Export Plug-In . SVG Version: 6.00 Build 0)  -->
<svg version="1.1" id="Layer_1" xmlns="http://www.w3.org/2000/svg" xmlns:xlink="http://www.w3.org/1999/xlink" x="0px" y="0px"
	 viewBox="-583.9 304.9 50 50" style="enable-background:new -583.9 304.9 50 50;" xml:space="preserve">
<g>
	<path d="M-554.8,343.2c-7.3,0-13.3-6-13.3-13.3s6-13.3,13.3-13.3c1.4,0,2.8,0.2,4.2,0.7c0.5,0.2,0.8,0.6,0.8,1.1
		c0,0.5-0.3,0.9-0.8,1.1c-4.5,1.5-7.5,5.7-7.5,10.5c0,4.8,3,9,7.5,10.5c0.5,0.2,0.8,0.6,0.8,1.1c0,0.5-0.3,0.9-0.8,1.1
		C-551.9,343-553.3,343.2-554.8,343.2z M-554.8,318.9c-6.1,0-11,4.9-11,11c0,6.1,4.9,11,11,11c0.1,0,0.1,0,0.2,0
		c-3.6-2.4-5.9-6.5-5.9-11c0-4.5,2.3-8.6,5.9-11C-554.6,318.9-554.7,318.9-554.8,318.9z"/>
</g>
</svg>
