<?xml version="1.0" encoding="utf-8"?>
<!-- Generator: Adobe Illustrator 19.1.0, SVG Export Plug-In . SVG Version: 6.00 Build 0)  -->
<svg version="1.1" id="Layer_1" xmlns="http://www.w3.org/2000/svg" xmlns:xlink="http://www.w3.org/1999/xlink" x="0px" y="0px"
	 viewBox="-583.9 304.9 50 50" style="enable-background:new -583.9 304.9 50 50;" xml:space="preserve">
<g>
	<g>
		<path d="M-558.9,321.7c-4.6,0-8.2,3.7-8.2,8.2s3.7,8.2,8.2,8.2s8.2-3.7,8.2-8.2S-554.4,321.7-558.9,321.7z M-558.9,335.8
			c-3.3,0-5.9-2.6-5.9-5.9s2.6-5.9,5.9-5.9s5.9,2.6,5.9,5.9S-555.6,335.8-558.9,335.8z M-558.9,319.3c0.6,0,1.2-0.5,1.2-1.2v-2.4
			c0-0.6-0.5-1.2-1.2-1.2s-1.2,0.5-1.2,1.2v2.4C-560.1,318.8-559.6,319.3-558.9,319.3z M-558.9,340.5c-0.6,0-1.2,0.5-1.2,1.2v2.4
			c0,0.6,0.5,1.2,1.2,1.2s1.2-0.5,1.2-1.2v-2.4C-557.7,341-558.3,340.5-558.9,340.5z M-549.7,322.4l1.7-1.7c0.5-0.5,0.5-1.2,0-1.7
			c-0.5-0.5-1.2-0.5-1.7,0l-1.7,1.7c-0.5,0.5-0.5,1.2,0,1.7C-550.9,322.9-550.2,322.9-549.7,322.4z M-568,337.4l-1.7,1.7
			c-0.5,0.5-0.5,1.2,0,1.7c0.5,0.5,1.2,0.5,1.7,0l1.7-1.7c0.5-0.5,0.5-1.2,0-1.7C-566.9,337-567.6,337-568,337.4z M-569.5,329.9
			c0-0.6-0.5-1.2-1.2-1.2h-2.4c-0.6,0-1.2,0.5-1.2,1.2s0.5,1.2,1.2,1.2h2.4C-570,331.1-569.5,330.6-569.5,329.9z M-544.8,328.7h-2.4
			c-0.6,0-1.2,0.5-1.2,1.2s0.5,1.2,1.2,1.2h2.4c0.6,0,1.2-0.5,1.2-1.2S-544.1,328.7-544.8,328.7z M-568.1,322.4
			c0.5,0.5,1.2,0.5,1.7,0c0.5-0.5,0.5-1.2,0-1.7l-1.7-1.7c-0.5-0.5-1.2-0.5-1.7,0c-0.5,0.5-0.5,1.2,0,1.7L-568.1,322.4z
			 M-549.7,337.4c-0.5-0.5-1.2-0.5-1.7,0c-0.5,0.5-0.5,1.2,0,1.7l1.7,1.7c0.5,0.5,1.2,0.5,1.7,0c0.5-0.5,0.5-1.2,0-1.7L-549.7,337.4
			z"/>
	</g>
</g>
</svg>
